{
	"asset":{
		"generator":"Khronos glTF Blender I/O v4.0.44",
		"version":"2.0"
	},
	"scene":0,
	"scenes":[
		{
			"extras":{
				"b4w_glow_settings":{},
				"svg_export":{}
			},
			"name":"Scene",
			"nodes":[
				1,
				3,
				5,
				7,
				9,
				11,
				13,
				15,
				17,
				19,
				21,
				23,
				25
			]
		}
	],
	"nodes":[
		{
			"mesh":0,
			"name":"Board Model"
		},
		{
			"children":[
				0
			],
			"name":"Board"
		},
		{
			"mesh":1,
			"name":"White King Model"
		},
		{
			"children":[
				2
			],
			"name":"White King",
			"translation":[
				0.7129051685333252,
				0.1756235510110855,
				-5.299704551696777
			]
		},
		{
			"mesh":2,
			"name":"White Knight Model",
			"rotation":[
				0,
				0.7071068286895752,
				0,
				0.7071067094802856
			]
		},
		{
			"children":[
				4
			],
			"name":"White Knight",
			"translation":[
				3.733388900756836,
				0.17562350630760193,
				-5.283143043518066
			]
		},
		{
			"mesh":3,
			"name":"White Queen Model"
		},
		{
			"children":[
				6
			],
			"name":"White Queen",
			"translation":[
				-0.7503290176391602,
				0.17562347650527954,
				-5.283143043518066
			]
		},
		{
			"mesh":4,
			"name":"White Bishop Model"
		},
		{
			"children":[
				8
			],
			"name":"White Bishop",
			"translation":[
				2.242835760116577,
				0.17562350630760193,
				-5.2003350257873535
			]
		},
		{
			"mesh":5,
			"name":"White Rook Model"
		},
		{
			"children":[
				10
			],
			"name":"White Rook",
			"translation":[
				5.286298751831055,
				0.17562350630760193,
				-5.2500200271606445
			]
		},
		{
			"mesh":6,
			"name":"White Pawn Model"
		},
		{
			"children":[
				12
			],
			"name":"White Pawn",
			"translation":[
				5.335597515106201,
				0.003392282873392105,
				-3.7429161071777344
			]
		},
		{
			"mesh":7,
			"name":"Black Bishop Model",
			"rotation":[
				0,
				-1,
				0,
				7.549790126404332e-08
			]
		},
		{
			"children":[
				14
			],
			"name":"Black Bishop",
			"translation":[
				2.262238025665283,
				0.17562341690063477,
				5.235238552093506
			]
		},
		{
			"mesh":8,
			"name":"Black Rook Model",
			"rotation":[
				0,
				-1,
				0,
				7.549790126404332e-08
			]
		},
		{
			"children":[
				16
			],
			"name":"Black Rook",
			"translation":[
				5.396243095397949,
				0.17562328279018402,
				5.284923553466797
			]
		},
		{
			"mesh":9,
			"name":"Black Knight Model",
			"rotation":[
				0,
				-0.7071066498756409,
				0,
				0.70710688829422
			]
		},
		{
			"children":[
				18
			],
			"name":"Black Knight",
			"translation":[
				3.7362074851989746,
				0.17562335729599,
				5.218677043914795
			]
		},
		{
			"mesh":10,
			"name":"Black Pawn Model",
			"rotation":[
				0,
				-1,
				0,
				7.549790126404332e-08
			]
		},
		{
			"children":[
				20
			],
			"name":"Black Pawn",
			"translation":[
				5.264136791229248,
				0.003392048180103302,
				3.8109421730041504
			]
		},
		{
			"mesh":11,
			"name":"Black Queen Model",
			"rotation":[
				0,
				-1,
				0,
				7.549790126404332e-08
			]
		},
		{
			"children":[
				22
			],
			"name":"Black Queen",
			"translation":[
				0.7506539821624756,
				0.17562347650527954,
				5.251800537109375
			]
		},
		{
			"mesh":12,
			"name":"Black King Model",
			"rotation":[
				0,
				-1,
				0,
				7.549790126404332e-08
			]
		},
		{
			"children":[
				24
			],
			"name":"Black King",
			"translation":[
				-0.7125802040100098,
				0.1756235510110855,
				5.268362045288086
			]
		}
	],
	"materials":[
		{
			"doubleSided":true,
			"name":"Chess",
			"pbrMetallicRoughness":{}
		}
	],
	"meshes":[
		{
			"name":"Plane",
			"primitives":[
				{
					"attributes":{
						"POSITION":0,
						"NORMAL":1,
						"TEXCOORD_0":2
					},
					"indices":3,
					"material":0
				}
			]
		},
		{
			"name":"Circle.011",
			"primitives":[
				{
					"attributes":{
						"POSITION":4,
						"NORMAL":5,
						"TEXCOORD_0":6
					},
					"indices":7,
					"material":0
				}
			]
		},
		{
			"name":"Circle.012",
			"primitives":[
				{
					"attributes":{
						"POSITION":8,
						"NORMAL":9,
						"TEXCOORD_0":10
					},
					"indices":11,
					"material":0
				}
			]
		},
		{
			"name":"Circle.013",
			"primitives":[
				{
					"attributes":{
						"POSITION":12,
						"NORMAL":13,
						"TEXCOORD_0":14
					},
					"indices":15,
					"material":0
				}
			]
		},
		{
			"name":"Circle.014",
			"primitives":[
				{
					"attributes":{
						"POSITION":16,
						"NORMAL":17,
						"TEXCOORD_0":18
					},
					"indices":19,
					"material":0
				}
			]
		},
		{
			"name":"Circle.015",
			"primitives":[
				{
					"attributes":{
						"POSITION":20,
						"NORMAL":21,
						"TEXCOORD_0":22
					},
					"indices":23,
					"material":0
				}
			]
		},
		{
			"name":"Circle.016",
			"primitives":[
				{
					"attributes":{
						"POSITION":24,
						"NORMAL":25,
						"TEXCOORD_0":26
					},
					"indices":27,
					"material":0
				}
			]
		},
		{
			"name":"Circle.027",
			"primitives":[
				{
					"attributes":{
						"POSITION":28,
						"NORMAL":29,
						"TEXCOORD_0":30
					},
					"indices":19,
					"material":0
				}
			]
		},
		{
			"name":"Circle.028",
			"primitives":[
				{
					"attributes":{
						"POSITION":31,
						"NORMAL":32,
						"TEXCOORD_0":33
					},
					"indices":23,
					"material":0
				}
			]
		},
		{
			"name":"Circle.029",
			"primitives":[
				{
					"attributes":{
						"POSITION":34,
						"NORMAL":35,
						"TEXCOORD_0":36
					},
					"indices":11,
					"material":0
				}
			]
		},
		{
			"name":"Circle.030",
			"primitives":[
				{
					"attributes":{
						"POSITION":37,
						"NORMAL":38,
						"TEXCOORD_0":39
					},
					"indices":27,
					"material":0
				}
			]
		},
		{
			"name":"Circle.040",
			"primitives":[
				{
					"attributes":{
						"POSITION":40,
						"NORMAL":41,
						"TEXCOORD_0":42
					},
					"indices":15,
					"material":0
				}
			]
		},
		{
			"name":"Circle.042",
			"primitives":[
				{
					"attributes":{
						"POSITION":43,
						"NORMAL":44,
						"TEXCOORD_0":45
					},
					"indices":7,
					"material":0
				}
			]
		}
	],
	"accessors":[
		{
			"bufferView":0,
			"componentType":5126,
			"count":670,
			"max":[
				7.299530029296875,
				0.2516167163848877,
				7.299530029296875
			],
			"min":[
				-7.299530029296875,
				-0.27746492624282837,
				-7.299530029296875
			],
			"type":"VEC3"
		},
		{
			"bufferView":1,
			"componentType":5126,
			"count":670,
			"type":"VEC3"
		},
		{
			"bufferView":2,
			"componentType":5126,
			"count":670,
			"type":"VEC2"
		},
		{
			"bufferView":3,
			"componentType":5123,
			"count":1818,
			"type":"SCALAR"
		},
		{
			"bufferView":4,
			"componentType":5126,
			"count":972,
			"max":[
				0.6665575504302979,
				3.305854320526123,
				0.6360217332839966
			],
			"min":[
				-0.6665571928024292,
				-0.17223116755485535,
				-0.6768401265144348
			],
			"type":"VEC3"
		},
		{
			"bufferView":5,
			"componentType":5126,
			"count":972,
			"type":"VEC3"
		},
		{
			"bufferView":6,
			"componentType":5126,
			"count":972,
			"type":"VEC2"
		},
		{
			"bufferView":7,
			"componentType":5123,
			"count":1524,
			"type":"SCALAR"
		},
		{
			"bufferView":8,
			"componentType":5126,
			"count":557,
			"max":[
				0.5452341437339783,
				2.131995916366577,
				0.5099523663520813
			],
			"min":[
				-0.5452341437339783,
				-0.17223118245601654,
				-0.5426799654960632
			],
			"type":"VEC3"
		},
		{
			"bufferView":9,
			"componentType":5126,
			"count":557,
			"type":"VEC3"
		},
		{
			"bufferView":10,
			"componentType":5126,
			"count":557,
			"type":"VEC2"
		},
		{
			"bufferView":11,
			"componentType":5123,
			"count":849,
			"type":"SCALAR"
		},
		{
			"bufferView":12,
			"componentType":5126,
			"count":1116,
			"max":[
				0.6665575504302979,
				2.856036901473999,
				0.6360217332839966
			],
			"min":[
				-0.6665571928024292,
				-0.17223116755485535,
				-0.6768401265144348
			],
			"type":"VEC3"
		},
		{
			"bufferView":13,
			"componentType":5126,
			"count":1116,
			"type":"VEC3"
		},
		{
			"bufferView":14,
			"componentType":5126,
			"count":1116,
			"type":"VEC2"
		},
		{
			"bufferView":15,
			"componentType":5123,
			"count":1716,
			"type":"SCALAR"
		},
		{
			"bufferView":16,
			"componentType":5126,
			"count":1027,
			"max":[
				0.5806282758712769,
				2.4124629497528076,
				0.5540289282798767
			],
			"min":[
				-0.5806278586387634,
				-0.17223118245601654,
				-0.5895852446556091
			],
			"type":"VEC3"
		},
		{
			"bufferView":17,
			"componentType":5126,
			"count":1027,
			"type":"VEC3"
		},
		{
			"bufferView":18,
			"componentType":5126,
			"count":1027,
			"type":"VEC2"
		},
		{
			"bufferView":19,
			"componentType":5123,
			"count":1566,
			"type":"SCALAR"
		},
		{
			"bufferView":20,
			"componentType":5126,
			"count":684,
			"max":[
				0.5344355702400208,
				1.6792863607406616,
				0.5099523663520813
			],
			"min":[
				-0.5344352722167969,
				-0.17223118245601654,
				-0.5426799654960632
			],
			"type":"VEC3"
		},
		{
			"bufferView":21,
			"componentType":5126,
			"count":684,
			"type":"VEC3"
		},
		{
			"bufferView":22,
			"componentType":5126,
			"count":684,
			"type":"VEC2"
		},
		{
			"bufferView":23,
			"componentType":5123,
			"count":1068,
			"type":"SCALAR"
		},
		{
			"bufferView":24,
			"componentType":5126,
			"count":537,
			"max":[
				0.5038267374038696,
				1.6073250770568848,
				0.48074594140052795
			],
			"min":[
				-0.5038267374038696,
				0,
				-0.5115991234779358
			],
			"type":"VEC3"
		},
		{
			"bufferView":25,
			"componentType":5126,
			"count":537,
			"type":"VEC3"
		},
		{
			"bufferView":26,
			"componentType":5126,
			"count":537,
			"type":"VEC2"
		},
		{
			"bufferView":27,
			"componentType":5123,
			"count":783,
			"type":"SCALAR"
		},
		{
			"bufferView":28,
			"componentType":5126,
			"count":1027,
			"max":[
				0.5806282758712769,
				2.4124629497528076,
				0.5540289282798767
			],
			"min":[
				-0.5806278586387634,
				-0.17223118245601654,
				-0.5895852446556091
			],
			"type":"VEC3"
		},
		{
			"bufferView":29,
			"componentType":5126,
			"count":1027,
			"type":"VEC3"
		},
		{
			"bufferView":30,
			"componentType":5126,
			"count":1027,
			"type":"VEC2"
		},
		{
			"bufferView":31,
			"componentType":5126,
			"count":684,
			"max":[
				0.5344355702400208,
				1.6792863607406616,
				0.5099523663520813
			],
			"min":[
				-0.5344352722167969,
				-0.17223118245601654,
				-0.5426799654960632
			],
			"type":"VEC3"
		},
		{
			"bufferView":32,
			"componentType":5126,
			"count":684,
			"type":"VEC3"
		},
		{
			"bufferView":33,
			"componentType":5126,
			"count":684,
			"type":"VEC2"
		},
		{
			"bufferView":34,
			"componentType":5126,
			"count":557,
			"max":[
				0.5452341437339783,
				2.131995916366577,
				0.5099523663520813
			],
			"min":[
				-0.5452341437339783,
				-0.17223118245601654,
				-0.5426799654960632
			],
			"type":"VEC3"
		},
		{
			"bufferView":35,
			"componentType":5126,
			"count":557,
			"type":"VEC3"
		},
		{
			"bufferView":36,
			"componentType":5126,
			"count":557,
			"type":"VEC2"
		},
		{
			"bufferView":37,
			"componentType":5126,
			"count":537,
			"max":[
				0.5038267970085144,
				1.6073250770568848,
				0.48074594140052795
			],
			"min":[
				-0.5038267970085144,
				0,
				-0.5115991234779358
			],
			"type":"VEC3"
		},
		{
			"bufferView":38,
			"componentType":5126,
			"count":537,
			"type":"VEC3"
		},
		{
			"bufferView":39,
			"componentType":5126,
			"count":537,
			"type":"VEC2"
		},
		{
			"bufferView":40,
			"componentType":5126,
			"count":1116,
			"max":[
				0.6665575504302979,
				2.856036901473999,
				0.6360217332839966
			],
			"min":[
				-0.6665571928024292,
				-0.17223116755485535,
				-0.6768401265144348
			],
			"type":"VEC3"
		},
		{
			"bufferView":41,
			"componentType":5126,
			"count":1116,
			"type":"VEC3"
		},
		{
			"bufferView":42,
			"componentType":5126,
			"count":1116,
			"type":"VEC2"
		},
		{
			"bufferView":43,
			"componentType":5126,
			"count":972,
			"max":[
				0.6665575504302979,
				3.305854320526123,
				0.6360217332839966
			],
			"min":[
				-0.6665571928024292,
				-0.17223116755485535,
				-0.6768401265144348
			],
			"type":"VEC3"
		},
		{
			"bufferView":44,
			"componentType":5126,
			"count":972,
			"type":"VEC3"
		},
		{
			"bufferView":45,
			"componentType":5126,
			"count":972,
			"type":"VEC2"
		}
	],
	"bufferViews":[
		{
			"buffer":0,
			"byteLength":8040,
			"byteOffset":0,
			"target":34962
		},
		{
			"buffer":0,
			"byteLength":8040,
			"byteOffset":8040,
			"target":34962
		},
		{
			"buffer":0,
			"byteLength":5360,
			"byteOffset":16080,
			"target":34962
		},
		{
			"buffer":0,
			"byteLength":3636,
			"byteOffset":21440,
			"target":34963
		},
		{
			"buffer":0,
			"byteLength":11664,
			"byteOffset":25076,
			"target":34962
		},
		{
			"buffer":0,
			"byteLength":11664,
			"byteOffset":36740,
			"target":34962
		},
		{
			"buffer":0,
			"byteLength":7776,
			"byteOffset":48404,
			"target":34962
		},
		{
			"buffer":0,
			"byteLength":3048,
			"byteOffset":56180,
			"target":34963
		},
		{
			"buffer":0,
			"byteLength":6684,
			"byteOffset":59228,
			"target":34962
		},
		{
			"buffer":0,
			"byteLength":6684,
			"byteOffset":65912,
			"target":34962
		},
		{
			"buffer":0,
			"byteLength":4456,
			"byteOffset":72596,
			"target":34962
		},
		{
			"buffer":0,
			"byteLength":1698,
			"byteOffset":77052,
			"target":34963
		},
		{
			"buffer":0,
			"byteLength":13392,
			"byteOffset":78752,
			"target":34962
		},
		{
			"buffer":0,
			"byteLength":13392,
			"byteOffset":92144,
			"target":34962
		},
		{
			"buffer":0,
			"byteLength":8928,
			"byteOffset":105536,
			"target":34962
		},
		{
			"buffer":0,
			"byteLength":3432,
			"byteOffset":114464,
			"target":34963
		},
		{
			"buffer":0,
			"byteLength":12324,
			"byteOffset":117896,
			"target":34962
		},
		{
			"buffer":0,
			"byteLength":12324,
			"byteOffset":130220,
			"target":34962
		},
		{
			"buffer":0,
			"byteLength":8216,
			"byteOffset":142544,
			"target":34962
		},
		{
			"buffer":0,
			"byteLength":3132,
			"byteOffset":150760,
			"target":34963
		},
		{
			"buffer":0,
			"byteLength":8208,
			"byteOffset":153892,
			"target":34962
		},
		{
			"buffer":0,
			"byteLength":8208,
			"byteOffset":162100,
			"target":34962
		},
		{
			"buffer":0,
			"byteLength":5472,
			"byteOffset":170308,
			"target":34962
		},
		{
			"buffer":0,
			"byteLength":2136,
			"byteOffset":175780,
			"target":34963
		},
		{
			"buffer":0,
			"byteLength":6444,
			"byteOffset":177916,
			"target":34962
		},
		{
			"buffer":0,
			"byteLength":6444,
			"byteOffset":184360,
			"target":34962
		},
		{
			"buffer":0,
			"byteLength":4296,
			"byteOffset":190804,
			"target":34962
		},
		{
			"buffer":0,
			"byteLength":1566,
			"byteOffset":195100,
			"target":34963
		},
		{
			"buffer":0,
			"byteLength":12324,
			"byteOffset":196668,
			"target":34962
		},
		{
			"buffer":0,
			"byteLength":12324,
			"byteOffset":208992,
			"target":34962
		},
		{
			"buffer":0,
			"byteLength":8216,
			"byteOffset":221316,
			"target":34962
		},
		{
			"buffer":0,
			"byteLength":8208,
			"byteOffset":229532,
			"target":34962
		},
		{
			"buffer":0,
			"byteLength":8208,
			"byteOffset":237740,
			"target":34962
		},
		{
			"buffer":0,
			"byteLength":5472,
			"byteOffset":245948,
			"target":34962
		},
		{
			"buffer":0,
			"byteLength":6684,
			"byteOffset":251420,
			"target":34962
		},
		{
			"buffer":0,
			"byteLength":6684,
			"byteOffset":258104,
			"target":34962
		},
		{
			"buffer":0,
			"byteLength":4456,
			"byteOffset":264788,
			"target":34962
		},
		{
			"buffer":0,
			"byteLength":6444,
			"byteOffset":269244,
			"target":34962
		},
		{
			"buffer":0,
			"byteLength":6444,
			"byteOffset":275688,
			"target":34962
		},
		{
			"buffer":0,
			"byteLength":4296,
			"byteOffset":282132,
			"target":34962
		},
		{
			"buffer":0,
			"byteLength":13392,
			"byteOffset":286428,
			"target":34962
		},
		{
			"buffer":0,
			"byteLength":13392,
			"byteOffset":299820,
			"target":34962
		},
		{
			"buffer":0,
			"byteLength":8928,
			"byteOffset":313212,
			"target":34962
		},
		{
			"buffer":0,
			"byteLength":11664,
			"byteOffset":322140,
			"target":34962
		},
		{
			"buffer":0,
			"byteLength":11664,
			"byteOffset":333804,
			"target":34962
		},
		{
			"buffer":0,
			"byteLength":7776,
			"byteOffset":345468,
			"target":34962
		}
	],
	"buffers":[
		{
			"byteLength":353244,
			"uri":"LowPolyChessPack-775943771888ec22e6571447ab7929f8.bin"
		}
	]
}
